<svg width="1200" height="800" viewBox="0 0 1200 800" fill="none" xmlns="http://www.w3.org/2000/svg">
  <rect width="1200" height="800" rx="40" fill="#F8FAFC"/>
  <ellipse cx="610" cy="650" rx="360" ry="52" fill="#DDE6F3"/>
  <rect x="210" y="140" width="670" height="410" rx="20" fill="#1F2937"/>
  <rect x="236" y="164" width="618" height="350" rx="12" fill="#F1F5F9"/>
  <rect x="262" y="190" width="166" height="300" rx="8" fill="#0EA5E9"/>
  <rect x="446" y="190" width="170" height="20" rx="6" fill="#94A3B8"/>
  <rect x="446" y="224" width="340" height="12" rx="6" fill="#CBD5E1"/>
  <rect x="446" y="252" width="380" height="12" rx="6" fill="#CBD5E1"/>
  <rect x="446" y="280" width="280" height="12" rx="6" fill="#CBD5E1"/>
  <rect x="446" y="330" width="380" height="160" rx="12" fill="#E2E8F0"/>
  <path d="M190 560H900L980 630H110L190 560Z" fill="#D1D9E8"/>
  <path d="M170 560H920L870 585H220L170 560Z" fill="#A7B6CF"/>
  <rect x="860" y="210" width="160" height="300" rx="22" fill="#334155"/>
  <rect x="873" y="228" width="134" height="252" rx="14" fill="#F8FAFC"/>
  <rect x="888" y="246" width="104" height="18" rx="8" fill="#0EA5E9"/>
  <rect x="888" y="276" width="90" height="10" rx="5" fill="#CBD5E1"/>
  <rect x="888" y="300" width="104" height="10" rx="5" fill="#CBD5E1"/>
  <rect x="888" y="324" width="80" height="10" rx="5" fill="#CBD5E1"/>
  <rect x="888" y="354" width="104" height="98" rx="10" fill="#E2E8F0"/>
</svg>
